<svg version="1.1" id="Layer_1" xmlns="http://www.w3.org/2000/svg" xmlns:xlink="http://www.w3.org/1999/xlink" x="0px" y="0px"
	 viewBox="0 0 130.82 260.34" style="enable-background:new 0 0 130.82 260.34;" xml:space="preserve">
<style type="text/css">
	.st0{fill:#FF4713;}
</style>
<g>
	<path class="st0" d="M104.02,31.63L96.71,4.67c11.08-3.01,22.5-4.5,33.92-4.5v0V28.1C121.67,28.1,112.72,29.27,104.02,31.63z"/>
	<path class="st0" d="M34.44,96.09L8.11,86.75c4.32-12.17,10.4-23.61,18.08-33.98l22.46,16.61C42.61,77.53,37.83,86.52,34.44,96.09z
		"/>
	<path class="st0" d="M29.78,114.44c-0.81,5.18-1.22,10.46-1.22,15.69c0,4.84,0.35,9.72,1.05,14.52l-27.64,4.01
		c-0.89-6.11-1.34-12.35-1.34-18.52c0-6.67,0.53-13.41,1.56-20.02L29.78,114.44z"/>
	<path class="st0" d="M42.28,34.78C51.75,26,62.47,18.7,74.13,13.08l12.11,25.17c-9.14,4.4-17.54,10.12-24.97,17.01L42.28,34.78z"/>
	<path class="st0" d="M34.09,163.2c3.31,9.65,7.98,18.69,13.9,26.86l-22.62,16.39c-7.55-10.42-13.51-21.92-17.7-34.16l-0.06-0.17
		l26.42-9.05L34.09,163.2z"/>
	<path class="st0" d="M85.31,221.57l-12.4,25.03c-11.59-5.74-22.22-13.14-31.6-22l19.18-20.31
		C67.85,211.24,76.21,217.05,85.31,221.57z"/>
	<path class="st0" d="M103,228.38c9.01,2.54,18.29,3.8,27.63,3.8v27.93c-11.89,0-23.74-1.61-35.22-4.85L103,228.38z"/>
</g>
</svg>
